# xmcd
#
# Track frame offsets:
#	150
#	11366
#	25382
#	35129
#	56548
#	70342
#	78458
#	100162
#	112655
#	129646
#	152942
#	171504
#
# Disc length: 2459 seconds
#
# Revision: 2
# Processed by: cddbd v1.5.1PL2 Copyright (c) Steve Scherf et al.
# Submitted via: audiograbber 1.83.01
#
DISCID=9c09990c
DTITLE=Lonesome Sisters - The Lonesome Sisters
DYEAR=2004
DGENRE=Old-Time
TTITLE0=Could You Love Me One More Time
TTITLE1=Over the Sea
TTITLE2=Elkhorn Ridge
TTITLE3=I Have No Mother Now
TTITLE4=If That's the Way You Feel
TTITLE5=Pretty Saro
TTITLE6=Precious Memories
TTITLE7=Let Your Light Shine on Me
TTITLE8=Omie Wise
TTITLE9=Old Flames
TTITLE10=Western Dream
TTITLE11=Bright Morning Stars
EXTD=
EXTT0=
EXTT1=
EXTT2=
EXTT3=
EXTT4=
EXTT5=
EXTT6=
EXTT7=
EXTT8=
EXTT9=
EXTT10=
EXTT11=
PLAYORDER=
